<svg width="58" height="57" viewBox="0 0 58 57" fill="none" xmlns="http://www.w3.org/2000/svg">
<g id="akar-icons:shipping-box-02">
<g id="Group">
<path id="Vector" d="M26.6939 6.42668C27.3994 6.04177 28.193 5.83978 29 5.83978C29.807 5.83978 30.6006 6.04177 31.3061 6.42668L49.1543 16.166C49.5243 16.3682 49.8326 16.6638 50.0472 17.0224C50.2618 17.381 50.375 17.7894 50.375 18.2053V37.4203C50.3748 38.2525 50.1481 39.0695 49.7184 39.7866C49.2887 40.5038 48.6716 41.095 47.9311 41.499L31.3061 50.5757C30.6006 50.9606 29.807 51.1626 29 51.1626C28.193 51.1626 27.3994 50.9606 26.6939 50.5757L10.0689 41.499C9.32872 41.0952 8.71188 40.5043 8.2822 39.7877C7.85252 39.071 7.62562 38.2545 7.625 37.4227V18.2053C7.62498 17.7894 7.73815 17.381 7.95279 17.0224C8.16742 16.6638 8.47572 16.3682 8.84575 16.166L26.6939 6.42668Z" stroke="#F25CA3" stroke-width="2" stroke-linecap="round" stroke-linejoin="round"/>
<path id="Vector_2" d="M18.3125 11L39.6875 22.6667V30.8333M14.75 29.2653L21.875 33.1667" stroke="#F25CA3" stroke-width="2" stroke-linecap="round" stroke-linejoin="round"/>
<path id="Vector_3" d="M7.625 16.8334L29 28.5M29 28.5L50.375 16.8334M29 28.5V51.8334" stroke="#F25CA3" stroke-width="2" stroke-linejoin="round"/>
</g>
</g>
</svg>
