<svg width="32" height="33" viewBox="0 0 32 33" fill="none" xmlns="http://www.w3.org/2000/svg">
<g id="ph:shopping-cart-simple">
<path id="Vector" d="M12 27.5C12 27.8956 11.8827 28.2822 11.6629 28.6111C11.4432 28.94 11.1308 29.1964 10.7654 29.3478C10.3999 29.4991 9.99778 29.5387 9.60982 29.4616C9.22186 29.3844 8.86549 29.1939 8.58579 28.9142C8.30608 28.6345 8.1156 28.2781 8.03843 27.8902C7.96126 27.5022 8.00087 27.1001 8.15224 26.7346C8.30362 26.3692 8.55996 26.0568 8.88886 25.8371C9.21776 25.6173 9.60444 25.5 10 25.5C10.5304 25.5 11.0391 25.7107 11.4142 26.0858C11.7893 26.4609 12 26.9696 12 27.5ZM23 25.5C22.6044 25.5 22.2178 25.6173 21.8889 25.8371C21.56 26.0568 21.3036 26.3692 21.1522 26.7346C21.0009 27.1001 20.9613 27.5022 21.0384 27.8902C21.1156 28.2781 21.3061 28.6345 21.5858 28.9142C21.8655 29.1939 22.2219 29.3844 22.6098 29.4616C22.9978 29.5387 23.3999 29.4991 23.7654 29.3478C24.1308 29.1964 24.4432 28.94 24.6629 28.6111C24.8827 28.2822 25 27.8956 25 27.5C25 26.9696 24.7893 26.4609 24.4142 26.0858C24.0391 25.7107 23.5304 25.5 23 25.5ZM28.9562 9.79375L25.39 21.3825C25.2032 21.9968 24.8234 22.5346 24.3068 22.916C23.7903 23.2975 23.1646 23.5022 22.5225 23.5H10.5087C9.85747 23.4976 9.2245 23.2842 8.70463 22.8919C8.18477 22.4996 7.80598 21.9494 7.625 21.3237L3.1025 5.5H1C0.734784 5.5 0.48043 5.39464 0.292893 5.20711C0.105357 5.01957 0 4.76522 0 4.5C0 4.23478 0.105357 3.98043 0.292893 3.79289C0.48043 3.60536 0.734784 3.5 1 3.5H3.1025C3.53676 3.50144 3.95888 3.64349 4.30567 3.90487C4.65246 4.16626 4.90526 4.53293 5.02625 4.95L6.04 8.5H28C28.1565 8.49994 28.3108 8.53661 28.4505 8.60706C28.5903 8.67751 28.7115 8.77976 28.8045 8.90561C28.8976 9.03145 28.9597 9.17737 28.9861 9.33163C29.0124 9.48588 29.0022 9.64417 28.9562 9.79375ZM26.6462 10.5H6.61125L9.5475 20.775C9.60724 20.9839 9.73336 21.1676 9.90679 21.2984C10.0802 21.4292 10.2915 21.5 10.5087 21.5H22.5225C22.7365 21.5001 22.9448 21.4315 23.117 21.3044C23.2891 21.1773 23.4159 20.9983 23.4788 20.7938L26.6462 10.5Z" fill="#F25CA3"/>
</g>
</svg>
