<svg width="46" height="45" viewBox="0 0 46 45" fill="none" xmlns="http://www.w3.org/2000/svg">
<g id="charm:messages">
<g id="Group">
<path id="Vector" d="M31.3852 30.8814C31.2039 30.726 30.9731 30.6406 30.7344 30.6406H14.8594V15.7656H39.5781V37.9039L31.3852 30.8814Z" stroke="#F25CA3" stroke-width="2" stroke-linecap="round" stroke-linejoin="round"/>
<g id="Vector_2">
<mask id="path-2-inside-1_36_175" fill="white">
<path d="M13.8594 20.3906L5.42188 28.8281V4.92188H33.5469V13.3594"/>
</mask>
<path d="M15.2736 21.8048C16.0546 21.0238 16.0546 19.7575 15.2736 18.9764C14.4925 18.1954 13.2262 18.1954 12.4452 18.9764L15.2736 21.8048ZM5.42188 28.8281H3.42188C3.42188 29.637 3.90916 30.3663 4.65651 30.6759C5.40386 30.9854 6.26409 30.8143 6.83609 30.2423L5.42188 28.8281ZM5.42188 4.92188V2.92188C4.31731 2.92188 3.42187 3.81731 3.42187 4.92188H5.42188ZM33.5469 4.92188H35.5469C35.5469 3.81731 34.6514 2.92187 33.5469 2.92187V4.92188ZM31.5469 13.3594C31.5469 14.4639 32.4423 15.3594 33.5469 15.3594C34.6514 15.3594 35.5469 14.4639 35.5469 13.3594H31.5469ZM12.4452 18.9764L4.00766 27.4139L6.83609 30.2423L15.2736 21.8048L12.4452 18.9764ZM7.42188 28.8281V4.92188H3.42188V28.8281H7.42188ZM5.42188 6.92188H33.5469V2.92188H5.42188V6.92188ZM31.5469 4.92188V13.3594H35.5469V4.92188H31.5469Z" fill="#F25CA3" mask="url(#path-2-inside-1_36_175)"/>
</g>
</g>
</g>
</svg>
