<svg width="23" height="23" viewBox="0 0 23 23" fill="none" xmlns="http://www.w3.org/2000/svg">
<g id="streamline:computer-logo-facebook-1-media-facebook-social" clip-path="url(#clip0_36_164)">
<path id="Vector" d="M1.28564 20.1428V2.85707C1.28564 2.4403 1.45121 2.04061 1.74591 1.74591C2.04061 1.45121 2.4403 1.28564 2.85707 1.28564H20.1428C20.5596 1.28564 20.9593 1.45121 21.254 1.74591C21.5487 2.04061 21.7142 2.4403 21.7142 2.85707V20.1428C21.7142 20.5596 21.5487 20.9593 21.254 21.254C20.9593 21.5487 20.5596 21.7142 20.1428 21.7142H15.4285V14.2656H16.5442C16.7984 14.2656 17.0423 14.1647 17.222 13.9849C17.4018 13.8051 17.5028 13.5613 17.5028 13.3071V12.0971C17.5028 11.8428 17.4018 11.599 17.222 11.4193C17.0423 11.2395 16.7984 11.1385 16.5442 11.1385H15.4914V9.66136C15.4914 8.34136 16.0885 8.34136 16.6856 8.34136H17.4556C17.5821 8.34657 17.7082 8.32394 17.825 8.27506C17.9417 8.22618 18.0463 8.15225 18.1314 8.0585C18.2227 7.97156 18.295 7.86662 18.3437 7.75031C18.3923 7.634 18.4164 7.50886 18.4142 7.38279V6.21993C18.4184 6.09197 18.3973 5.96443 18.3522 5.84462C18.3071 5.72481 18.2388 5.61506 18.1512 5.52166C18.0637 5.42825 17.9585 5.35303 17.8419 5.30027C17.7252 5.24752 17.5993 5.21828 17.4714 5.21422H15.6642C15.1369 5.19439 14.6116 5.28927 14.1246 5.49229C13.6375 5.69531 13.2003 6.00164 12.8432 6.39012C12.4861 6.7786 12.2176 7.23996 12.0562 7.74235C11.8948 8.24473 11.8444 8.77616 11.9085 9.29993V11.1385H10.9028C10.7756 11.1364 10.6492 11.1597 10.5311 11.2069C10.413 11.2541 10.3055 11.3244 10.2148 11.4136C10.1241 11.5029 10.0521 11.6092 10.0029 11.7266C9.95379 11.8439 9.92848 11.9699 9.9285 12.0971V13.3071C9.92848 13.4343 9.95379 13.5602 10.0029 13.6776C10.0521 13.7949 10.1241 13.9013 10.2148 13.9905C10.3055 14.0797 10.413 14.15 10.5311 14.1972C10.6492 14.2445 10.7756 14.2677 10.9028 14.2656H11.9085V21.7142H2.85707C2.4403 21.7142 2.04061 21.5487 1.74591 21.254C1.45121 20.9593 1.28564 20.5596 1.28564 20.1428Z" stroke="white" stroke-width="2" stroke-linecap="round" stroke-linejoin="round"/>
</g>
<defs>
<clipPath id="clip0_36_164">
<rect width="22" height="22" fill="white" transform="translate(0.5 0.5)"/>
</clipPath>
</defs>
</svg>
