<svg width="28" height="27" viewBox="0 0 28 27" fill="none" xmlns="http://www.w3.org/2000/svg">
<g id="mdi:instagram">
<path id="Vector" d="M9.275 2.25H18.725C22.325 2.25 25.25 5.175 25.25 8.775V18.225C25.25 19.9555 24.5625 21.6152 23.3389 22.8389C22.1152 24.0625 20.4555 24.75 18.725 24.75H9.275C5.675 24.75 2.75 21.825 2.75 18.225V8.775C2.75 7.04446 3.43745 5.3848 4.66113 4.16113C5.8848 2.93745 7.54446 2.25 9.275 2.25ZM9.05 4.5C7.97587 4.5 6.94574 4.9267 6.18622 5.68622C5.4267 6.44574 5 7.47587 5 8.55V18.45C5 20.6887 6.81125 22.5 9.05 22.5H18.95C20.0241 22.5 21.0543 22.0733 21.8138 21.3138C22.5733 20.5543 23 19.5241 23 18.45V8.55C23 6.31125 21.1887 4.5 18.95 4.5H9.05ZM19.9062 6.1875C20.2792 6.1875 20.6369 6.33566 20.9006 6.59938C21.1643 6.8631 21.3125 7.22079 21.3125 7.59375C21.3125 7.96671 21.1643 8.3244 20.9006 8.58812C20.6369 8.85184 20.2792 9 19.9062 9C19.5333 9 19.1756 8.85184 18.9119 8.58812C18.6482 8.3244 18.5 7.96671 18.5 7.59375C18.5 7.22079 18.6482 6.8631 18.9119 6.59938C19.1756 6.33566 19.5333 6.1875 19.9062 6.1875ZM14 7.875C15.4918 7.875 16.9226 8.46763 17.9775 9.52252C19.0324 10.5774 19.625 12.0082 19.625 13.5C19.625 14.9918 19.0324 16.4226 17.9775 17.4775C16.9226 18.5324 15.4918 19.125 14 19.125C12.5082 19.125 11.0774 18.5324 10.0225 17.4775C8.96763 16.4226 8.375 14.9918 8.375 13.5C8.375 12.0082 8.96763 10.5774 10.0225 9.52252C11.0774 8.46763 12.5082 7.875 14 7.875ZM14 10.125C13.1049 10.125 12.2464 10.4806 11.6135 11.1135C10.9806 11.7464 10.625 12.6049 10.625 13.5C10.625 14.3951 10.9806 15.2536 11.6135 15.8865C12.2464 16.5194 13.1049 16.875 14 16.875C14.8951 16.875 15.7536 16.5194 16.3865 15.8865C17.0194 15.2536 17.375 14.3951 17.375 13.5C17.375 12.6049 17.0194 11.7464 16.3865 11.1135C15.7536 10.4806 14.8951 10.125 14 10.125Z" fill="white"/>
</g>
</svg>
