<svg width="29" height="30" viewBox="0 0 29 30" fill="none" xmlns="http://www.w3.org/2000/svg">
<g id="ri:search-line">
<path id="Vector" d="M21.7873 20.5788L26.9626 25.7529L25.2528 27.4627L20.0787 22.2874C18.1535 23.8307 15.7589 24.6701 13.2915 24.6666C7.2885 24.6666 2.4165 19.7946 2.4165 13.7916C2.4165 7.78863 7.2885 2.91663 13.2915 2.91663C19.2945 2.91663 24.1665 7.78863 24.1665 13.7916C24.17 16.259 23.3306 18.6536 21.7873 20.5788ZM19.3634 19.6822C20.8969 18.1052 21.7533 15.9913 21.7498 13.7916C21.7498 9.11779 17.9641 5.33329 13.2915 5.33329C8.61767 5.33329 4.83317 9.11779 4.83317 13.7916C4.83317 18.4643 8.61767 22.25 13.2915 22.25C15.4912 22.2534 17.6051 21.397 19.1821 19.8635L19.3634 19.6822Z" fill="#F25CA3"/>
</g>
</svg>
