<svg width="30" height="29" viewBox="0 0 30 29" fill="none" xmlns="http://www.w3.org/2000/svg">
<g id="ic:baseline-whatsapp">
<path id="Vector" d="M23.5187 6.22857C22.4109 5.14815 21.0914 4.29151 19.6371 3.70863C18.1828 3.12574 16.6229 2.82827 15.0483 2.83357C8.4508 2.83357 3.07372 8.02523 3.07372 14.3952C3.07372 16.4369 3.62955 18.4202 4.66872 20.1702L2.97705 26.1669L9.3208 24.5569C11.0729 25.4786 13.0425 25.9686 15.0483 25.9686C21.6458 25.9686 27.0229 20.7769 27.0229 14.4069C27.0229 11.3152 25.7783 8.41023 23.5187 6.22857ZM15.0483 24.0086C13.26 24.0086 11.5079 23.5419 9.9733 22.6669L9.6108 22.4569L5.8408 23.4136L6.84372 19.8669L6.60205 19.5052C5.60849 17.9734 5.08093 16.2027 5.07955 14.3952C5.07955 9.09856 9.55038 4.7819 15.0362 4.7819C17.6946 4.7819 20.1958 5.78523 22.0687 7.60523C22.9961 8.49652 23.731 9.55667 24.2309 10.7242C24.7308 11.8918 24.9857 13.1435 24.9808 14.4069C25.005 19.7036 20.5341 24.0086 15.0483 24.0086ZM20.51 16.8219C20.2079 16.6819 18.7337 15.9819 18.4679 15.8769C18.19 15.7836 17.9966 15.7369 17.7912 16.0169C17.5858 16.3086 17.0179 16.9619 16.8487 17.1486C16.6796 17.3469 16.4983 17.3702 16.1962 17.2186C15.8941 17.0786 14.9275 16.7636 13.7916 15.7836C12.8975 15.0136 12.3054 14.0686 12.1241 13.7769C11.955 13.4852 12.1 13.3336 12.2571 13.1819C12.39 13.0536 12.5591 12.8436 12.7041 12.6802C12.8491 12.5169 12.9096 12.3886 13.0062 12.2019C13.1029 12.0036 13.0546 11.8402 12.9821 11.7002C12.9096 11.5602 12.3054 10.1369 12.0637 9.55357C11.8221 8.99357 11.5683 9.06357 11.3871 9.0519H10.8071C10.6016 9.0519 10.2875 9.1219 10.0096 9.41357C9.74372 9.70523 8.97038 10.4052 8.97038 11.8286C8.97038 13.2519 10.0458 14.6286 10.1908 14.8152C10.3358 15.0136 12.3054 17.9302 15.3021 19.1786C16.015 19.4819 16.5708 19.6569 17.0058 19.7852C17.7187 20.0069 18.3712 19.9719 18.8908 19.9019C19.4708 19.8202 20.6671 19.2019 20.9087 18.5252C21.1625 17.8486 21.1625 17.2769 21.0779 17.1486C20.9933 17.0202 20.8121 16.9619 20.51 16.8219Z" fill="white"/>
</g>
</svg>
