<svg width="57" height="38" viewBox="0 0 57 38" fill="none" xmlns="http://www.w3.org/2000/svg">
<g id="GE" clip-path="url(#clip0_0_31)">
<path id="Vector" d="M2.02637 38H55.2264V1H2.02637V38Z" fill="white"/>
<path id="Vector_2" d="M24.8267 23.2H0V15.8H24.8267V1H32.4267V15.8H57.2533V23.2H32.4267V38H24.8267V23.2Z" fill="#875244"/>
<path id="Vector_3" d="M43.8266 31.34L43.32 34.3H45.8533L45.3466 31.34L48.3866 31.8333V29.3667L45.3466 29.86L45.8533 26.9H43.32L43.8266 29.86L40.7866 29.3667V31.8333L43.8266 31.34ZM11.6533 31.34L11.1466 34.3H13.6799L13.1733 31.34L16.2133 31.8333V29.3667L13.1733 29.86L13.6799 26.9H11.1466L11.6533 29.86L8.61328 29.3667V31.8333L11.6533 31.34ZM11.6533 9.13999L11.1466 12.1H13.6799L13.1733 9.13999L16.2133 9.63332V7.16665L13.1733 7.65999L13.6799 4.69999H11.1466L11.6533 7.65999L8.61328 7.16665V9.63332L11.6533 9.13999ZM43.8266 9.13999L43.32 12.1H45.8533L45.3466 9.13999L48.3866 9.63332V7.16665L45.3466 7.65999L45.8533 4.69999H43.32L43.8266 7.65999L40.7866 7.16665V9.63332L43.8266 9.13999Z" fill="#875244"/>
</g>
<defs>
<clipPath id="clip0_0_31">
<rect width="57" height="37" fill="white" transform="matrix(1 0 0 -1 0 37.5)"/>
</clipPath>
</defs>
</svg>
