<svg width="41" height="40" viewBox="0 0 41 40" fill="none" xmlns="http://www.w3.org/2000/svg">
<g id="google">
<path id="vector" d="M38.0017 20.3887C38.0017 18.9498 37.8826 17.8998 37.6247 16.8109H20.8589V23.3053H30.7001C30.5017 24.9192 29.4303 27.3498 27.0493 28.983L27.0159 29.2005L32.317 33.225L32.6843 33.2609C36.0572 30.2081 38.0017 25.7164 38.0017 20.3887" fill="#875244"/>
<path id="vector_2" d="M20.8579 37.5C25.6792 37.5 29.7268 35.9443 32.6832 33.2611L27.0483 28.9831C25.5404 30.0137 23.5165 30.7332 20.8579 30.7332C16.1357 30.7332 12.1278 27.6804 10.6991 23.461L10.4897 23.4784L4.9776 27.659L4.90552 27.8554C7.84198 33.5721 13.8737 37.5 20.8579 37.5Z" fill="#875244"/>
<path id="vector_3" d="M10.7 23.4611C10.3231 22.3722 10.1049 21.2054 10.1049 20C10.1049 18.7943 10.3231 17.6277 10.6802 16.5388L10.6702 16.3069L5.08903 12.0592L4.90642 12.1443C3.69616 14.5166 3.00171 17.1805 3.00171 20C3.00171 22.8194 3.69616 25.4832 4.90642 27.8554L10.7 23.4611" fill="#875244"/>
<path id="vector_4" d="M20.858 9.26662C24.2111 9.26662 26.473 10.6861 27.7627 11.8722L32.8024 7.05C29.7072 4.23056 25.6793 2.5 20.858 2.5C13.8738 2.5 7.842 6.42775 4.90552 12.1444L10.6793 16.5389C12.1279 12.3194 16.1358 9.26662 20.858 9.26662" fill="#875244"/>
</g>
</svg>
